<svg width="231" height="27" viewBox="0 0 231 27" fill="none" xmlns="http://www.w3.org/2000/svg">
<path d="M10 5.375C8.39306 5.375 6.82218 5.85152 5.48603 6.74431C4.14988 7.6371 3.10847 8.90605 2.49351 10.3907C1.87855 11.8753 1.71765 13.509 2.03115 15.0851C2.34466 16.6612 3.11849 18.1089 4.25479 19.2452C5.39109 20.3815 6.83883 21.1554 8.41493 21.4689C9.99102 21.7824 11.6247 21.6215 13.1093 21.0065C14.594 20.3916 15.8629 19.3502 16.7557 18.014C17.6485 16.6779 18.125 15.107 18.125 13.5C18.1228 11.3458 17.266 9.28051 15.7428 7.75727C14.2195 6.23403 12.1542 5.37727 10 5.375ZM10 20.375C8.64029 20.375 7.31108 19.9718 6.18049 19.2164C5.0499 18.4609 4.16871 17.3872 3.64836 16.1309C3.12801 14.8747 2.99186 13.4924 3.25714 12.1588C3.52241 10.8251 4.17719 9.60013 5.13868 8.63864C6.10016 7.67716 7.32517 7.02237 8.65879 6.7571C9.99241 6.49183 11.3747 6.62798 12.631 7.14833C13.8872 7.66868 14.961 8.54987 15.7164 9.68045C16.4718 10.811 16.875 12.1403 16.875 13.5C16.873 15.3227 16.148 17.0702 14.8591 18.3591C13.5702 19.6479 11.8228 20.3729 10 20.375ZM7.50003 13.5C7.50003 14.0247 7.66513 14.5361 7.97193 14.9618C8.27873 15.3874 8.71168 15.7058 9.20947 15.8717C9.70724 16.0376 10.2446 16.0427 10.7455 15.8863C11.2463 15.7298 11.6852 15.4198 12 15C12.0996 14.8674 12.2478 14.7798 12.4119 14.7564C12.5761 14.733 12.7428 14.7758 12.8754 14.8754C13.008 14.9749 13.0957 15.1231 13.119 15.2873C13.1424 15.4514 13.0996 15.6182 13 15.7508C12.5277 16.3802 11.8693 16.8451 11.118 17.0796C10.3668 17.3141 9.56086 17.3064 8.8143 17.0574C8.06774 16.8084 7.41843 16.3309 6.95832 15.6925C6.49821 15.054 6.25062 14.287 6.25062 13.5C6.25062 12.713 6.49821 11.946 6.95832 11.3075C7.41843 10.6691 8.06774 10.1916 8.8143 9.94259C9.56086 9.69363 10.3668 9.68585 11.118 9.92036C11.8693 10.1549 12.5277 10.6198 13 11.2492C13.0493 11.3149 13.0852 11.3896 13.1056 11.4691C13.126 11.5487 13.1306 11.6314 13.119 11.7127C13.1075 11.794 13.08 11.8722 13.0382 11.9429C12.9964 12.0136 12.9411 12.0753 12.8754 12.1246C12.8098 12.1739 12.735 12.2098 12.6555 12.2302C12.576 12.2506 12.4932 12.2552 12.4119 12.2436C12.3306 12.232 12.2524 12.2046 12.1818 12.1628C12.1111 12.121 12.0493 12.0657 12 12C11.6852 11.5802 11.2463 11.2702 10.7455 11.1137C10.2446 10.9573 9.70724 10.9624 9.20947 11.1283C8.71168 11.2942 8.27873 11.6126 7.97193 12.0382C7.66513 12.4639 7.50003 12.9753 7.50003 13.5Z" fill="#F8F8F8"/>
<path d="M33.36 12.74C34.04 13.0333 34.58 13.48 34.98 14.08C35.3933 14.6667 35.6 15.34 35.6 16.1C35.6 17.18 35.22 18.1 34.46 18.86C33.7 19.62 32.78 20 31.7 20H25.6V6H31.24C32.28 6 33.1667 6.37333 33.9 7.12C34.6333 7.85333 35 8.73333 35 9.76C35 11.0667 34.4533 12.06 33.36 12.74ZM31.24 7.32H27V12.2H31.24C31.8933 12.2 32.4467 11.9667 32.9 11.5C33.3667 11.02 33.6 10.44 33.6 9.76C33.6 9.09333 33.3667 8.52 32.9 8.04C32.4467 7.56 31.8933 7.32 31.24 7.32ZM31.7 18.68C32.3933 18.68 32.98 18.4333 33.46 17.94C33.9533 17.4333 34.2 16.82 34.2 16.1C34.2 15.3933 33.9533 14.7867 33.46 14.28C32.98 13.7733 32.3933 13.52 31.7 13.52H27V18.68H31.7ZM42.4623 20.24C40.9557 20.24 39.7023 19.74 38.7023 18.74C37.7023 17.7267 37.2023 16.48 37.2023 15C37.2023 13.52 37.7023 12.28 38.7023 11.28C39.7023 10.2667 40.9557 9.76 42.4623 9.76C43.449 9.76 44.3357 10 45.1223 10.48C45.909 10.9467 46.4823 11.58 46.8423 12.38L45.7623 13C45.4957 12.4 45.0623 11.9267 44.4623 11.58C43.8757 11.22 43.209 11.04 42.4623 11.04C41.3557 11.04 40.4223 11.4267 39.6623 12.2C38.9023 12.96 38.5223 13.8933 38.5223 15C38.5223 16.1067 38.9023 17.0467 39.6623 17.82C40.4223 18.58 41.3557 18.96 42.4623 18.96C43.209 18.96 43.8757 18.7867 44.4623 18.44C45.049 18.08 45.509 17.6 45.8423 17L46.9423 17.64C46.529 18.44 45.9223 19.0733 45.1223 19.54C44.3223 20.0067 43.4357 20.24 42.4623 20.24ZM53.3598 9.76C54.8398 9.76 56.0332 10.2867 56.9398 11.34C57.8598 12.38 58.3198 13.6133 58.3198 15.04C58.3198 15.1867 58.3065 15.3933 58.2798 15.66H49.4998C49.6332 16.6733 50.0598 17.48 50.7798 18.08C51.5132 18.6667 52.4132 18.96 53.4798 18.96C54.2398 18.96 54.8932 18.8067 55.4398 18.5C55.9998 18.18 56.4198 17.7667 56.6998 17.26L57.8598 17.94C57.4198 18.6467 56.8198 19.2067 56.0598 19.62C55.2998 20.0333 54.4332 20.24 53.4598 20.24C51.8865 20.24 50.6065 19.7467 49.6198 18.76C48.6332 17.7733 48.1398 16.52 48.1398 15C48.1398 13.5067 48.6265 12.26 49.5998 11.26C50.5732 10.26 51.8265 9.76 53.3598 9.76ZM53.3598 11.04C52.3198 11.04 51.4465 11.3533 50.7398 11.98C50.0465 12.5933 49.6332 13.3933 49.4998 14.38H56.9598C56.8265 13.3267 56.4198 12.5067 55.7398 11.92C55.0598 11.3333 54.2665 11.04 53.3598 11.04ZM73.8195 10V20H72.4995V11.28H66.7395V20H65.4195V10H73.8195ZM81.9709 9.76C83.3976 9.76 84.6109 10.2667 85.6109 11.28C86.6243 12.2933 87.1309 13.5333 87.1309 15C87.1309 16.4667 86.6243 17.7067 85.6109 18.72C84.6109 19.7333 83.3976 20.24 81.9709 20.24C80.1976 20.24 78.8509 19.5067 77.9309 18.04V24H76.6109V10H77.9309V11.96C78.8509 10.4933 80.1976 9.76 81.9709 9.76ZM79.0709 17.82C79.8309 18.58 80.7643 18.96 81.8709 18.96C82.9776 18.96 83.9109 18.58 84.6709 17.82C85.4309 17.0467 85.8109 16.1067 85.8109 15C85.8109 13.8933 85.4309 12.96 84.6709 12.2C83.9109 11.4267 82.9776 11.04 81.8709 11.04C80.7643 11.04 79.8309 11.4267 79.0709 12.2C78.3109 12.96 77.9309 13.8933 77.9309 15C77.9309 16.1067 78.3109 17.0467 79.0709 17.82ZM97.9258 10H99.2458V20H97.9258V18.04C97.0058 19.5067 95.6591 20.24 93.8858 20.24C92.4591 20.24 91.2391 19.7333 90.2258 18.72C89.2258 17.7067 88.7258 16.4667 88.7258 15C88.7258 13.5333 89.2258 12.2933 90.2258 11.28C91.2391 10.2667 92.4591 9.76 93.8858 9.76C95.6591 9.76 97.0058 10.4933 97.9258 11.96V10ZM91.1858 17.82C91.9458 18.58 92.8791 18.96 93.9858 18.96C95.0924 18.96 96.0258 18.58 96.7858 17.82C97.5458 17.0467 97.9258 16.1067 97.9258 15C97.9258 13.8933 97.5458 12.96 96.7858 12.2C96.0258 11.4267 95.0924 11.04 93.9858 11.04C92.8791 11.04 91.9458 11.4267 91.1858 12.2C90.4258 12.96 90.0458 13.8933 90.0458 15C90.0458 16.1067 90.4258 17.0467 91.1858 17.82ZM108.401 14.86C109.494 15.26 110.041 16.04 110.041 17.2C110.041 18.0133 109.767 18.6867 109.221 19.22C108.687 19.74 107.914 20 106.901 20H102.041V10H106.501C107.474 10 108.227 10.2533 108.761 10.76C109.294 11.2533 109.561 11.8933 109.561 12.68C109.561 13.68 109.174 14.4067 108.401 14.86ZM106.501 11.28H103.361V14.32H106.501C107.661 14.32 108.241 13.8 108.241 12.76C108.241 12.2933 108.087 11.9333 107.781 11.68C107.487 11.4133 107.061 11.28 106.501 11.28ZM106.901 18.72C107.487 18.72 107.934 18.58 108.241 18.3C108.561 18.02 108.721 17.6267 108.721 17.12C108.721 16.6533 108.561 16.2867 108.241 16.02C107.934 15.74 107.487 15.6 106.901 15.6H103.361V18.72H106.901ZM120.641 10H121.961V20H120.641V18.04C119.721 19.5067 118.374 20.24 116.601 20.24C115.174 20.24 113.954 19.7333 112.941 18.72C111.941 17.7067 111.441 16.4667 111.441 15C111.441 13.5333 111.941 12.2933 112.941 11.28C113.954 10.2667 115.174 9.76 116.601 9.76C118.374 9.76 119.721 10.4933 120.641 11.96V10ZM113.901 17.82C114.661 18.58 115.594 18.96 116.701 18.96C117.807 18.96 118.741 18.58 119.501 17.82C120.261 17.0467 120.641 16.1067 120.641 15C120.641 13.8933 120.261 12.96 119.501 12.2C118.741 11.4267 117.807 11.04 116.701 11.04C115.594 11.04 114.661 11.4267 113.901 12.2C113.141 12.96 112.761 13.8933 112.761 15C112.761 16.1067 113.141 17.0467 113.901 17.82ZM134.915 14.86C136.075 15.3 136.655 16.1 136.655 17.26C136.655 18.0867 136.329 18.7933 135.675 19.38C135.035 19.9533 134.115 20.24 132.915 20.24C130.902 20.24 129.582 19.44 128.955 17.84L130.075 17.18C130.489 18.3667 131.435 18.96 132.915 18.96C133.689 18.96 134.282 18.7933 134.695 18.46C135.122 18.1267 135.335 17.7 135.335 17.18C135.335 16.7133 135.162 16.3333 134.815 16.04C134.469 15.7467 134.002 15.6 133.415 15.6H131.955V14.32H133.015C133.589 14.32 134.035 14.18 134.355 13.9C134.689 13.6067 134.855 13.2067 134.855 12.7C134.855 12.22 134.662 11.8267 134.275 11.52C133.889 11.2 133.369 11.04 132.715 11.04C131.462 11.04 130.629 11.54 130.215 12.54L129.115 11.9C129.782 10.4733 130.982 9.76 132.715 9.76C133.769 9.76 134.609 10.04 135.235 10.6C135.862 11.1467 136.175 11.82 136.175 12.62C136.175 13.6467 135.755 14.3933 134.915 14.86ZM147.262 10H148.582V20H147.262V18.04C146.342 19.5067 144.995 20.24 143.222 20.24C141.795 20.24 140.575 19.7333 139.562 18.72C138.562 17.7067 138.062 16.4667 138.062 15C138.062 13.5333 138.562 12.2933 139.562 11.28C140.575 10.2667 141.795 9.76 143.222 9.76C144.995 9.76 146.342 10.4933 147.262 11.96V10ZM140.522 17.82C141.282 18.58 142.215 18.96 143.322 18.96C144.428 18.96 145.362 18.58 146.122 17.82C146.882 17.0467 147.262 16.1067 147.262 15C147.262 13.8933 146.882 12.96 146.122 12.2C145.362 11.4267 144.428 11.04 143.322 11.04C142.215 11.04 141.282 11.4267 140.522 12.2C139.762 12.96 139.382 13.8933 139.382 15C139.382 16.1067 139.762 17.0467 140.522 17.82ZM164.777 18.72H166.177V22.68H164.857V20H151.377V10H152.697V18.72H157.417V10H158.737V18.72H163.457V10H164.777V18.72ZM175.453 10H176.573V20H175.253V12.3L169.293 20H168.173V10H169.493V17.7L175.453 10ZM192.765 18.72H194.165V22.68H192.845V20H179.365V10H180.685V18.72H185.405V10H186.725V18.72H191.445V10H192.765V18.72ZM200.391 9.76C201.871 9.76 203.064 10.2867 203.971 11.34C204.891 12.38 205.351 13.6133 205.351 15.04C205.351 15.1867 205.338 15.3933 205.311 15.66H196.531C196.664 16.6733 197.091 17.48 197.811 18.08C198.544 18.6667 199.444 18.96 200.511 18.96C201.271 18.96 201.924 18.8067 202.471 18.5C203.031 18.18 203.451 17.7667 203.731 17.26L204.891 17.94C204.451 18.6467 203.851 19.2067 203.091 19.62C202.331 20.0333 201.464 20.24 200.491 20.24C198.918 20.24 197.638 19.7467 196.651 18.76C195.664 17.7733 195.171 16.52 195.171 15C195.171 13.5067 195.658 12.26 196.631 11.26C197.604 10.26 198.858 9.76 200.391 9.76ZM200.391 11.04C199.351 11.04 198.478 11.3533 197.771 11.98C197.078 12.5933 196.664 13.3933 196.531 14.38H203.991C203.858 13.3267 203.451 12.5067 202.771 11.92C202.091 11.3333 201.298 11.04 200.391 11.04ZM214.531 10H215.851V20H214.531V15.64H208.771V20H207.451V10H208.771V14.36H214.531V10ZM222.702 13.8C223.636 13.8 224.422 14.0933 225.062 14.68C225.716 15.2533 226.042 15.9933 226.042 16.9C226.042 17.8067 225.716 18.5533 225.062 19.14C224.422 19.7133 223.636 20 222.702 20H218.642V10H219.962V13.8H222.702ZM227.442 10H228.762V20H227.442V10ZM222.702 18.72C223.262 18.72 223.736 18.5533 224.122 18.22C224.522 17.8867 224.722 17.4467 224.722 16.9C224.722 16.3533 224.522 15.9133 224.122 15.58C223.736 15.2467 223.262 15.08 222.702 15.08H219.962V18.72H222.702Z" fill="#F8F8F8"/>
</svg>
