<svg width="20" height="20" viewBox="0 0 20 20" fill="none" xmlns="http://www.w3.org/2000/svg">
<path d="M7.22222 2.5H3.61111C2.99746 2.5 2.5 2.99746 2.5 3.61111V7.22222C2.5 7.83587 2.99746 8.33334 3.61111 8.33334H7.22222C7.83587 8.33334 8.33333 7.83587 8.33333 7.22222V3.61111C8.33333 2.99746 7.83587 2.5 7.22222 2.5Z" stroke="#1F1F1F" stroke-width="2" stroke-linecap="round" stroke-linejoin="round"/>
<path d="M16.3888 2.5H12.7777C12.1641 2.5 11.6666 2.99746 11.6666 3.61111V7.22222C11.6666 7.83587 12.1641 8.33334 12.7777 8.33334H16.3888C17.0025 8.33334 17.5 7.83587 17.5 7.22222V3.61111C17.5 2.99746 17.0025 2.5 16.3888 2.5Z" stroke="#1F1F1F" stroke-width="2" stroke-linecap="round" stroke-linejoin="round"/>
<path d="M16.3888 11.6667H12.7777C12.1641 11.6667 11.6666 12.1641 11.6666 12.7778V16.3889C11.6666 17.0025 12.1641 17.5 12.7777 17.5H16.3888C17.0025 17.5 17.5 17.0025 17.5 16.3889V12.7778C17.5 12.1641 17.0025 11.6667 16.3888 11.6667Z" stroke="#1F1F1F" stroke-width="2" stroke-linecap="round" stroke-linejoin="round"/>
<path d="M7.22222 11.6667H3.61111C2.99746 11.6667 2.5 12.1641 2.5 12.7778V16.3889C2.5 17.0025 2.99746 17.5 3.61111 17.5H7.22222C7.83587 17.5 8.33333 17.0025 8.33333 16.3889V12.7778C8.33333 12.1641 7.83587 11.6667 7.22222 11.6667Z" stroke="#1F1F1F" stroke-width="2" stroke-linecap="round" stroke-linejoin="round"/>
</svg>
