<svg width="145" height="40" viewBox="0 0 145 40" fill="none" xmlns="http://www.w3.org/2000/svg">
<path d="M15.456 12.324H6.496V17.636H15.2V21.86H6.496V30.5H2.08V8.1H15.456V12.324ZM21.1768 30.116C20.6434 30.6493 20.0034 30.916 19.2568 30.916C18.5101 30.916 17.8701 30.6493 17.3368 30.116C16.8034 29.5827 16.5368 28.9427 16.5368 28.196C16.5368 27.4493 16.8034 26.8093 17.3368 26.276C17.8701 25.7427 18.5101 25.476 19.2568 25.476C20.0034 25.476 20.6434 25.7427 21.1768 26.276C21.7101 26.8093 21.9768 27.4493 21.9768 28.196C21.9768 28.9427 21.7101 29.5827 21.1768 30.116ZM47.5313 8.1V30.5H43.1473V15.972L36.8433 26.372H36.3313L30.0273 16.004V30.5H25.6113V8.1H30.1553L36.5873 18.692L42.9873 8.1H47.5313ZM66.105 30.5L64.761 26.468H55.833L54.489 30.5H49.721L57.561 8.1H63.033L70.905 30.5H66.105ZM57.241 22.34H63.385L60.313 13.188L57.241 22.34ZM85.368 30.5L80.856 22.724H77.496V30.5H73.08V8.1H82.04C84.1093 8.1 85.8693 8.82533 87.32 10.276C88.7707 11.7267 89.496 13.476 89.496 15.524C89.496 16.9107 89.1013 18.2013 88.312 19.396C87.5227 20.5693 86.4773 21.4547 85.176 22.052L90.136 30.5H85.368ZM77.496 12.228V18.852H82.04C82.872 18.852 83.5867 18.532 84.184 17.892C84.7813 17.2307 85.08 16.4413 85.08 15.524C85.08 14.6067 84.7813 13.828 84.184 13.188C83.5867 12.548 82.872 12.228 82.04 12.228H77.496ZM110.24 30.5H105.152L97.1523 20.004V30.5H92.7363V8.1H97.1523V17.988L104.832 8.1H109.92L101.632 18.98L110.24 30.5ZM116.84 26.276H126.28V30.5H112.424V8.1H126.12V12.324H116.84V17.092H125.32V21.252H116.84V26.276ZM144.208 8.1V12.324H138.161V30.5H133.745V12.324H127.729V8.1H144.208Z" fill="#F8F8F8"/>
</svg>
