<svg width="21" height="20" viewBox="0 0 21 20" fill="none" xmlns="http://www.w3.org/2000/svg">
<path d="M6.64101 16.7949C7.10125 16.7949 7.47434 16.4218 7.47434 15.9615C7.47434 15.5013 7.10125 15.1282 6.64101 15.1282C6.18077 15.1282 5.80768 15.5013 5.80768 15.9615C5.80768 16.4218 6.18077 16.7949 6.64101 16.7949Z" stroke="#1F1F1F" stroke-width="2" stroke-linecap="round" stroke-linejoin="round"/>
<path d="M15.8077 16.7949C16.2679 16.7949 16.641 16.4218 16.641 15.9615C16.641 15.5013 16.2679 15.1282 15.8077 15.1282C15.3475 15.1282 14.9744 15.5013 14.9744 15.9615C14.9744 16.4218 15.3475 16.7949 15.8077 16.7949Z" stroke="#1F1F1F" stroke-width="2" stroke-linecap="round" stroke-linejoin="round"/>
<path d="M4.141 3.46155H18.3077L16.9743 10.4532C16.8981 10.8369 16.6894 11.1815 16.3847 11.4268C16.08 11.6721 15.6987 11.8024 15.3077 11.7949H7.20766C6.81658 11.8024 6.43532 11.6721 6.13062 11.4268C5.82592 11.1815 5.6172 10.8369 5.541 10.4532L4.141 3.46155ZM4.141 3.46155H0.999969" stroke="#1F1F1F" stroke-width="2" stroke-linecap="round" stroke-linejoin="round"/>
</svg>
